<svg id="Layer_1" data-name="Layer 1" xmlns="http://www.w3.org/2000/svg" viewBox="0 0 814.61 633.97"><defs><style>.cls-1{fill:#eaeaea;}.cls-2{fill:#657285;}.cls-3{fill:#41828c;}.cls-4{fill:#364154;}.cls-5{fill:#d5d6da;}.cls-6{fill:#ff7955;}.cls-7{fill:#1c468a;}.cls-8{fill:#131f2d;}.cls-9{fill:#ef6343;}.cls-10{fill:#00a3fe;}.cls-11{fill:#fff;}.cls-12{fill:#016eb9;}.cls-13{fill:#9ed9f0;}</style></defs><path class="cls-1" d="M36.81,637.17S-42.27,430.45,58.89,276.44s188.16-68.68,232.3-73S349.49,64.31,480.07,23.63s363.07-26,253.64,268.2c-52.82,142,114.21,118,84.78,349.14Z" transform="translate(-7.39 -7)"/><path class="cls-2" d="M455,640.83a6,6,0,0,0,6-6V363.77H593.44v271.1a6,6,0,0,0,11.92,0v-283H449v283A6,6,0,0,0,455,640.83Z" transform="translate(-7.39 -7)"/><path class="cls-3" d="M188.37,281.54h0l30.84,145.68L207,427.3,178.74,293.75A10.12,10.12,0,0,1,188.37,281.54Z" transform="translate(-7.39 -7)"/><path class="cls-4" d="M190.43,640.83a6,6,0,0,0,5.92-5.38L213.7,457.11H297l17.35,178.34a6,6,0,0,0,11.86-1.16l-18.4-189.1H202.89l-18.4,189.1a6,6,0,0,0,5.36,6.51A5.63,5.63,0,0,0,190.43,640.83Z" transform="translate(-7.39 -7)"/><rect class="cls-4" x="198.56" y="558.59" width="116.38" height="9.93" transform="translate(506.12 1120.12) rotate(180)"/><path class="cls-2" d="M256,640.83a6,6,0,0,0,5.92-5.38l17.35-178.34h83.32l17.35,178.34a6,6,0,0,0,11.87-1.16l-18.4-189.1H268.43L250,634.29a6,6,0,0,0,5.35,6.51A5.83,5.83,0,0,0,256,640.83Z" transform="translate(-7.39 -7)"/><rect class="cls-2" x="261.92" y="558.59" width="116.38" height="9.93" transform="translate(632.82 1120.12) rotate(180)"/><path class="cls-5" d="M381.62,445.19H196.73a9,9,0,0,1-9-9h0a9,9,0,0,1,9-9H381.62a9,9,0,0,1,9,9h0A9,9,0,0,1,381.62,445.19Z" transform="translate(-7.39 -7)"/><rect class="cls-5" x="168.28" y="279.75" width="139.93" height="53.32" rx="19.81" transform="translate(469.09 605.83) rotate(180)"/><path class="cls-6" d="M479.16,549.27a5.83,5.83,0,0,0,4.84,4.05h0c4.34.81,10.85-1.12,17.76-3.74q1.32-.51,2.4-.87l.56-.18.44-.13c7-2.13,6.95.19,20.51-3,15.45-3.68,19.47-10.11,19.66-12.5.16-2-7-1.91-14.92-1.83h-1.16c-1.06,0-2.13,0-3.2,0-9.52,0-12.22-3-22.18-10.21-8.1-5.84-40-41.47-40-41.47l-13.82,16.35s28.07,23.87,29.34,32.74c.68,4.74-1.41,8.37-1.33,12.59,0,.29,0,.59,0,.88A27.65,27.65,0,0,0,479.16,549.27Z" transform="translate(-7.39 -7)"/><path class="cls-7" d="M479.16,549.27a5.83,5.83,0,0,0,4.84,4.05h0c4.5.52,10.93-1.32,17.73-3.78.89-.32,1.69-.6,2.43-.83l.56-.18.44-.13c7-2.13,6.95.19,20.51-3,15.45-3.68,19.47-10.11,19.66-12.5.16-2-7-1.91-14.92-1.83A46.9,46.9,0,0,1,508,540.62c-10.66,1.43-22.27-.26-30,.44,0,.29,0,.59,0,.88A27.65,27.65,0,0,0,479.16,549.27Z" transform="translate(-7.39 -7)"/><path class="cls-6" d="M435.23,612.76c.88,6.58,10.22,6.09,20.73,4.23s7.86,1,22.7.29,19.65-5.89,20.24-8.06c.52-1.91-6.71-3.06-14.46-4.46l-2.93-.55c-8.75-1.67-14.84-7.77-22.55-13-7.3-4.91-17.46-23.66-17.46-23.66l-20.31.3s9.57,16.78,13.23,24.05c2.14,4.27,1.67,9.7,1.1,13.89A26.28,26.28,0,0,0,435.23,612.76Z" transform="translate(-7.39 -7)"/><path class="cls-7" d="M455.79,617.74c10.57-1.52,7.83,1.24,22.68,1s19.88-7.72,20.54-9.86c.59-1.9-3.63-2.46-11.33-4.11l-3.06-.68s-9.47,7.86-21.73,7c-10-.72-20.27-4.6-27.17-5.15a26.16,26.16,0,0,0-.51,6.9C435.88,619.45,445.22,619.26,455.79,617.74Z" transform="translate(-7.39 -7)"/><path class="cls-6" d="M432.8,263.72s4.82-11.82,10.13-12.3,22.19-3.14,23.39-.72,0,11.09-3.62,14.22-26,8.2-26,8.2Z" transform="translate(-7.39 -7)"/><path class="cls-8" d="M397.56,383l63.2,108.15s10,17.51,4.46,21.31c-5.07,3.5-12.82,5.9-12.82,5.9s-80.37-79.8-85.94-110S397.56,383,397.56,383Z" transform="translate(-7.39 -7)"/><path class="cls-8" d="M236,364.85S368.22,360.4,392.4,377.1s56.39,200.83,56.39,200.83-2.54,1.86-8.05,2.23c-5.12.34-16.24-3.13-16.24-3.13s-53.82-84-57-104.76-1.43-39-10.59-39.92-138,11.37-148.33-23.9c-9.85-33.67,7.67-59.31,7.67-59.31Z" transform="translate(-7.39 -7)"/><path class="cls-8" d="M304.31,186.9c2-4.13,4.24-11.47,5.34-24.56-.17,1.3-2.43,17.81-8.77,27.15-26.08,17.12-76,74.27-75.06,85.1,0,0-17.6-29.85-17.91-30,0,0-32.47-41.29,6-64.94,19.56-12,19.46-27.45,18.64-40.85s5.33-71.09,44.51-56c0,0,6.29-2.8,9.11-2.38a7.68,7.68,0,0,0-3.47,1.65c4.54-.27,11,.07,16.45,3.15C313.54,93.36,326.39,166.59,304.31,186.9Z" transform="translate(-7.39 -7)"/><path class="cls-6" d="M299.33,190.34c.13.06-12.59,6.67-22.15,4-9-2.45-14.88-14.12-14.76-14.15,3.81-.76,4.91-6,4.83-28.5l1.72.34,29,5.74s-.66,9.11-.68,17.7C297.24,182.73,297.68,189.57,299.33,190.34Z" transform="translate(-7.39 -7)"/><path class="cls-9" d="M297.94,157.82s-.66,9.11-.68,17.7c-16.21-.45-24.78-15.24-28.29-23.44Z" transform="translate(-7.39 -7)"/><path class="cls-8" d="M266,148.93s-8.49-13.42-10.53-24.9c-1.46-8.2,2.72-38.57,33.24-34.19a41.39,41.39,0,0,1,17.19,6.5c6.63,4.47,16.2,14.13,5.5,40.64l-2.78,9Z" transform="translate(-7.39 -7)"/><path class="cls-6" d="M303.36,166S265,166.58,265,142.69s-5-39.9,19.49-41.31,29.25,7.7,31.2,15.67S313.33,165.17,303.36,166Z" transform="translate(-7.39 -7)"/><path class="cls-8" d="M267.14,105.83s26.2-17.91,34.48-5.52c2.52-2.16,7-3.72,12.91,3.45,8.89,10.78,1,29.83,1,29.83-3.65.43-4.51-12.1-6.42-18.18-1.44-4.59-6.26-9.27-8.54-11.3-3.34,7.54-12.55,25.6-25.23,28.86-16.12,4.14-23.11-.18-23.11-.18A45.66,45.66,0,0,0,267.14,105.83Z" transform="translate(-7.39 -7)"/><path class="cls-10" d="M198.29,384.77c2.07,5.74,8.42,7.22,16.92,6.22,16.21-1.89,40.29-12.78,57.64-20.31,26.46-11.46,38.49-.69,46.91-8s-9.62-23.53,6-98.89c5.3-25.55-28.28-80.38-28.28-80.38s-2.32,14.85-35.07-3.18c-.16-.09-13.79,18.06-26,41.16-13.44,25.48-26.3,56.26-22.52,72.13C221.14,323.76,192.28,368.08,198.29,384.77Z" transform="translate(-7.39 -7)"/><path class="cls-10" d="M297.49,183.42l19.8,81.33s2.47,4.39,6.33,10.64c9.08,14.67,25.87,39.6,36.62,42.13,5.3,1.25,16.59-3.17,29.07-9.47,23.6-11.93,51.51-30.62,51.51-30.62,1.8-10.82-7.62-19.64-7.62-19.64S376.68,279,371.07,279.44c-12.24.87-24.69-58.19-36.13-77.87C326.67,187.34,297.49,183.42,297.49,183.42Z" transform="translate(-7.39 -7)"/><path class="cls-11" d="M294.83,151.47s.71,3,8.26,2.56c0,0,6.34-.39,6.15-3.72C309.24,150.31,303.09,147.93,294.83,151.47Z" transform="translate(-7.39 -7)"/><path class="cls-12" d="M198.29,384.77c2.07,5.74,8.42,7.22,16.92,6.22,11.22-4.89,59.69-23.67,59.15-36.39-.81-18.84-9.32-19.44-3.31-42.69,4.83-18.67-40-53.39-47.1-60.93-13.43,25.48-13.8,26.68-10,42.55C221.14,323.76,192.28,368.08,198.29,384.77Z" transform="translate(-7.39 -7)"/><path class="cls-12" d="M323.62,275.39c9.08,14.67,25.87,39.6,36.62,42.13,5.3,1.25,16.59-3.17,29.07-9.47-9.11,2.35-18,2.28-26.56,1.45-9.32-.9-12-12.32-26.76-29.46C326.44,268.93,324.09,271.72,323.62,275.39Z" transform="translate(-7.39 -7)"/><path class="cls-2" d="M91.52,640.83a6,6,0,0,0,6-6V368.34H230V634.87a6,6,0,1,0,11.92,0v-283H85.56v283A6,6,0,0,0,91.52,640.83Z" transform="translate(-7.39 -7)"/><rect class="cls-2" x="55.18" y="341.8" width="166.7" height="15.42" transform="translate(269.66 692.01) rotate(180)"/><rect class="cls-2" x="221.88" y="341.8" width="402.29" height="15.42" transform="translate(838.65 692.01) rotate(180)"/><path class="cls-8" d="M278.31,271.29V238.71a8.41,8.41,0,0,1,8.41-8.4h39.89a8.4,8.4,0,0,1,8.41,8.4h64.63v30.06H343.43a8.41,8.41,0,0,0-8.41,8.41h-.43a6.87,6.87,0,0,0-6.81,7.83l5.06,36.12h97.4V341.8h-151V325.68a4.56,4.56,0,0,1,4.56-4.55h0l1.41-36.81a6.86,6.86,0,0,0-3-6A8.52,8.52,0,0,1,278.31,271.29Z" transform="translate(-7.39 -7)"/><path class="cls-4" d="M292.79,271.29V238.71a8.41,8.41,0,0,1,8.41-8.4h39.89a8.4,8.4,0,0,1,8.41,8.4h64.63v30.06H357.91a8.41,8.41,0,0,0-8.41,8.41h-.43a6.87,6.87,0,0,0-6.81,7.83l5.06,36.12h89.54a7.86,7.86,0,0,1,7.86,7.86V341.8h-151V325.68a4.56,4.56,0,0,1,4.56-4.55h0l1.41-36.81a6.86,6.86,0,0,0-3-6A8.52,8.52,0,0,1,292.79,271.29Z" transform="translate(-7.39 -7)"/><rect class="cls-13" x="406.65" y="291.82" height="1.39"/><path class="cls-4" d="M414.67,230.31H435a9.68,9.68,0,0,1,9.68,9.67V267.5a9.68,9.68,0,0,1-9.68,9.68h-4.71v19a5.65,5.65,0,0,1-4.37,5.51v16.08h-2.38v-16a5.67,5.67,0,0,1-4.57-5.56v-19h-4.34A9.67,9.67,0,0,1,405,267.5V240A9.67,9.67,0,0,1,414.67,230.31Z" transform="translate(-7.39 -7)"/><polygon class="cls-4" points="412.08 220.16 414.06 220.16 414.06 207.64 412.19 207.64 412.19 205.48 417.46 205.48 417.46 203.47 418.07 203.47 418.07 205.48 422.85 205.48 422.85 207.64 420.76 207.64 420.76 220.16 422.73 220.16 422.73 222.31 418.07 222.31 418.07 225.52 417.46 225.52 417.46 222.31 412.08 222.31 412.08 220.16"/><path class="cls-2" d="M286.13,226.51c10.42,0,18.87,13,18.87,29.12s-8.45,29.13-18.87,29.13-18.87-13-18.87-29.13S275.71,226.51,286.13,226.51Zm-13.48,25.35h6.16c.77-3.54,2.58-6.34,4.88-7.52v-9.51C278.08,236.39,273.66,243.21,272.65,251.86Zm15.92-17v9.51c2.3,1.18,4.11,4,4.88,7.52h6.16C298.6,243.21,294.18,236.39,288.57,234.83Zm11,24.58h-6.16c-.77,3.54-2.58,6.34-4.88,7.52v9.51C294.18,274.88,298.6,268.06,299.61,259.41Zm-15.92,17v-9.51c-2.3-1.18-4.11-4-4.88-7.52h-6.16C273.66,268.06,278.08,274.88,283.69,276.44Z" transform="translate(-7.39 -7)"/><path class="cls-1" d="M283.19,226.51c10.42,0,18.86,13,18.86,29.12s-8.44,29.13-18.86,29.13-18.87-13-18.87-29.13S272.76,226.51,283.19,226.51Zm-13.48,25.35h6.16c.76-3.54,2.58-6.34,4.87-7.52v-9.51C275.13,236.39,270.72,243.21,269.71,251.86Zm15.92-17v9.51c2.29,1.18,4.11,4,4.87,7.52h6.16C295.65,243.21,291.24,236.39,285.63,234.83Zm11,24.58H290.5c-.76,3.54-2.58,6.34-4.87,7.52v9.51C291.24,274.88,295.65,268.06,296.66,259.41Zm-15.92,17v-9.51c-2.29-1.18-4.11-4-4.87-7.52h-6.16C270.72,268.06,275.13,274.88,280.74,276.44Z" transform="translate(-7.39 -7)"/><path class="cls-6" d="M267.78,271.87s8.12-6.31,15.79-4.81,11.42,6.76,11.12,9.17-4.36,9.17-10.22,9.77-22.55-3.61-22.55-3.61Z" transform="translate(-7.39 -7)"/><path class="cls-10" d="M262.42,180.24s-31.26,1.93-42.08,17C205.11,218.51,168.55,313,185.87,325.09c19.5,13.6,87-35.56,87-35.56s2.3-10.77-.91-16-42.09,8.61-44.49,6.2,24.9-34,24.9-41.2S262.42,180.24,262.42,180.24Z" transform="translate(-7.39 -7)"/><path class="cls-10" d="M380.68,321.13s33,3.26,31.38,20.67c0,0,16.29,2.31,15.09,15.41s-20.65,122.34-6,167.62-90.95,71.93-90.95,116H708.77s-77.45-1.6-84.6-38.15,26.61-87.31,6.75-121.7.79-148.07-82.22-143.63c-65.14-.39-108.19-26.76-131.13-18.42C396.27,315.51,380.68,321.13,380.68,321.13Z" transform="translate(-7.39 -7)"/><path class="cls-12" d="M462.5,433.48s18.12,137.82-31.85,161.66,53.3,33.39,92.63,23.64c0,0-49.6,3.82-53-19.45S485.94,507.36,462.5,433.48Z" transform="translate(-7.39 -7)"/><path class="cls-12" d="M570.15,558.59s30.18-40.51,11.52-92.15S578.09,361.58,559,359.6s-2.78,83.41,9.54,108S570.15,558.59,570.15,558.59Z" transform="translate(-7.39 -7)"/><path class="cls-12" d="M497.71,400.11s25.88,64,14,139.86C511.72,540,534.63,477,497.71,400.11Z" transform="translate(-7.39 -7)"/><path class="cls-12" d="M418.91,321.32a24.7,24.7,0,0,1,18.92,18.62S440.39,324.58,418.91,321.32Z" transform="translate(-7.39 -7)"/><polygon class="cls-8" points="292.22 314.32 292.66 306.62 336.45 314.17 292.22 314.32"/><path class="cls-8" d="M349.35,240.29s1.27,27-2.31,31C347,271.27,354.42,269.11,349.35,240.29Z" transform="translate(-7.39 -7)"/><path class="cls-8" d="M405,243v22.79S402.62,252.45,405,243Z" transform="translate(-7.39 -7)"/></svg>